<svg width="130" height="130" viewBox="0 0 130 130" fill="none" xmlns="http://www.w3.org/2000/svg">
<path d="M64.9375 0.5C73.487 0.5 81.5473 2.08744 89.1221 5.25977L89.8535 5.57129L89.8564 5.57227C97.4475 8.80981 104.126 13.2656 109.896 18.9404L110.45 19.4941L110.452 19.4951C116.204 25.2501 120.756 31.8759 124.109 39.375L124.431 40.1025V40.1035C127.809 47.8523 129.5 56.1392 129.5 64.9688C129.5 73.8398 127.809 82.1678 124.431 89.958C121.154 97.4733 116.68 104.135 111.005 109.945L110.452 110.505L110.45 110.506C104.739 116.26 98.139 120.795 90.6465 124.11L89.918 124.428L89.916 124.429C82.1285 127.809 73.8251 129.5 65 129.5C56.4505 129.5 48.3905 127.913 40.8154 124.74L40.084 124.429L40.082 124.428L39.3535 124.11C32.1007 120.902 25.6654 116.551 20.0449 111.058L19.4863 110.505C13.5487 104.564 8.88881 97.7177 5.50684 89.9609H5.50781C2.17046 82.17 0.5 73.841 0.5 64.9688C0.500006 56.1386 2.16987 47.8516 5.50684 40.1025C8.88906 32.3033 13.5278 25.4355 19.4238 19.4951C25.1756 13.7405 31.7973 9.20584 39.292 5.88965L40.0195 5.57227L40.0215 5.57129C47.8085 2.19114 56.1123 0.500023 64.9375 0.5ZM88.5566 36.4736C86.2871 36.4737 84.3967 37.6318 82.8848 39.8115L82.5879 40.2607L82.5869 40.2627L57.8457 79.8164L46.7568 65.9043V65.9033L46.4336 65.5146C45.677 64.6393 44.8993 63.9874 44.0967 63.5859H44.0957C43.1888 63.0912 42.1765 62.8477 41.0693 62.8477C39.1926 62.8477 37.5897 63.524 36.291 64.8652C34.99 66.1669 34.3369 67.7708 34.3369 69.6455C34.337 70.5362 34.493 71.405 34.8037 72.249L34.8096 72.2646L34.8164 72.2793C35.166 73.0663 35.6432 73.8673 36.2422 74.6807L36.25 74.6924L36.2598 74.7031L51.2793 92.7842C52.2222 93.9829 53.2436 94.9006 54.3486 95.5195L54.3545 95.5234L54.3613 95.5273C55.478 96.1082 56.722 96.3945 58.082 96.3945C59.4097 96.3945 60.6371 96.0834 61.7539 95.458L61.5098 95.0215L61.7549 95.458L61.7598 95.4551C62.9074 94.7921 63.8755 93.8871 64.6631 92.749L64.668 92.7432L64.6719 92.7363L93.7754 47.7197C94.2488 46.9883 94.636 46.2139 94.9385 45.3975C95.2942 44.552 95.4765 43.6967 95.4766 42.835C95.4766 41.0601 94.8344 39.58 93.5605 38.4316L93.2969 38.207C91.9215 37.055 90.3355 36.4736 88.5566 36.4736Z" fill="#32DD32" stroke="white"/>
</svg>
